<?xml version="1.0" encoding="utf-8"?>
<!-- Generator: Adobe Illustrator 19.0.0, SVG Export Plug-In . SVG Version: 6.00 Build 0)  -->
<svg version="1.1" id="Слой_1" xmlns="http://www.w3.org/2000/svg" xmlns:xlink="http://www.w3.org/1999/xlink" x="0px" y="0px"
	 viewBox="-7 288.7 85 424.3" style="enable-background:new -7 288.7 85 424.3;" xml:space="preserve">
<style type="text/css">
	.st0{fill:#FFFFFF;}
	.st1{fill:#A1C057;}
	.st2{fill:#D66143;}
	.st3{fill:#84BC5D;}
	.st4{fill:#45A4D2;}
	.st5{fill:#EFBA44;}
	.st6{fill:#EFEFEF;}
	.st7{fill:#52AC62;}
	.st8{fill:#D76644;}
	.st9{fill:#C7505F;}
	.st10{fill:#BE5460;}
</style>
<path id="XMLID_2_" class="st0" d="M31.4,317.1c0.1,8.1,7.5,10.8,7.6,10.8c-0.1,0.2-1.2,3.8-3.9,7.6c-2.4,3.3-4.8,6.5-8.6,6.6
	s-5-2.1-9.3-2.1s-5.7,2.1-9.3,2.2c-3.7,0.1-6.5-3.5-8.9-6.8c-4.9-6.7-8.6-18.8-3.6-27c2.5-4.1,6.9-6.6,11.7-6.7
	c3.6-0.1,7.1,2.3,9.3,2.3s6.4-2.9,10.8-2.4c1.8,0.1,7,0.7,10.3,5.3C37.3,307.1,31.4,310.3,31.4,317.1 M24.3,297.2
	c2-2.3,3.3-5.4,2.9-8.5c-2.8,0.1-6.3,1.8-8.3,4c-1.8,2-3.4,5.2-3,8.3C19.1,301.2,22.3,299.5,24.3,297.2"/>
<g id="XMLID_18_">
	<path id="XMLID_23_" class="st1" d="M27.1,361.9H1c0,0.1,0,0.2,0,0.3v18.7c0,1.9,1.5,3.5,3.3,3.6v7.4c0,1.6,1.3,2.9,2.9,2.9
		s2.9-1.3,2.9-2.9v-7.4h8v7.4c0,1.6,1.3,2.9,2.9,2.9s2.9-1.3,2.9-2.9v-7.4c1.9-0.1,3.3-1.7,3.3-3.6v-18.6
		C27.2,362.2,27.2,362.1,27.1,361.9z"/>
	<path id="c-4-9-2-9-2-9" class="st1" d="M-4,363.6L-4,363.6c1.6,0,2.9,1.3,2.9,2.9v12.4c-0.1,1.5-1.4,2.8-2.9,2.8l0,0
		c-1.6,0-2.9-1.3-2.9-2.9v-12.3C-6.9,364.9-5.6,363.6-4,363.6z"/>
	<path id="c-4-1-7-3-8-4" class="st1" d="M32.2,363.6L32.2,363.6c1.6,0,2.9,1.3,2.9,2.9v12.4c0,1.6-1.3,2.9-2.9,2.9l0,0
		c-1.6,0-2.9-1.3-2.9-2.9v-12.4C29.3,364.9,30.6,363.6,32.2,363.6z"/>
	<path id="XMLID_19_" class="st1" d="M1.1,359.9h26c0-2.8-1.2-5.3-3.2-7.3l2.4-4.2c0.1-0.1,0-0.3-0.1-0.4c-0.1-0.1-0.3,0-0.4,0.1
		l-2.4,4.1c-2-1.8-4.8-3.1-7.9-3.4h-2.9c-3.1,0.3-5.9,1.5-7.9,3.4l-2.4-4.1C2.2,348,2,347.9,1.9,348c-0.1,0.1-0.2,0.3-0.1,0.4
		l2.4,4.2C2.3,354.6,1.1,357.1,1.1,359.9z M18.3,354.8c0-0.8,0.7-1.5,1.5-1.5s1.5,0.6,1.5,1.5l0,0c0,0.8-0.7,1.5-1.5,1.5
		C19,356.2,18.3,355.6,18.3,354.8L18.3,354.8z M7.2,354.8c0-0.8,0.7-1.5,1.5-1.5s1.5,0.6,1.5,1.5l0,0c0,0.8-0.7,1.5-1.5,1.5
		C7.9,356.2,7.2,355.6,7.2,354.8L7.2,354.8z"/>
</g>
<g id="XMLID_41_">
	<path id="path5058" class="st2" d="M13.9,420.9H-7v-20h20.9C13.9,400.9,13.9,420.9,13.9,420.9z"/>
	<path id="path5060" class="st3" d="M37,420.9H16.1v-20H37V420.9z"/>
	<path id="path5062" class="st4" d="M13.9,442.9H-7v-20h20.9C13.9,422.9,13.9,442.9,13.9,442.9z"/>
	<path id="path5064" class="st5" d="M37,442.9H16.1v-20H37V442.9z"/>
</g>
<g id="XMLID_46_">
	<path id="XMLID_44_" class="st6" d="M65.7,488.9c-2.8-2.4-6.7-3.6-11.5-3.6h-5.7c0.5-4.1,1.3-7.4,2.4-9.9c1.1-2.6,2.9-5,5.2-7.5
		c2.4-2.5,4.7-4.6,7-6.1c2.3-1.6,5.3-3.3,9-5.5l-4.3-7.1c-2.4,1.5-5.5,3.4-9.1,5.8s-7.1,5.2-10.3,8.6c-3.2,3.3-5.9,7.1-8.1,11.3
		c-2.2,4.2-3.3,8.9-3.3,14c0,7.2,1.5,13.1,4.4,17.6c2.9,4.5,7.8,6.7,14.6,6.7c4.4,0,7.8-1.5,10.2-4.4c2.4-2.9,3.7-5.9,3.7-9.3
		C69.9,494.9,68.5,491.3,65.7,488.9z"/>
	<path id="XMLID_43_" class="st6" d="M12.1,467.8c2.4-2.5,4.7-4.6,7-6.1c2.3-1.6,5.3-3.3,9-5.5l-4.3-7.1c-2.4,1.5-5.5,3.4-9.1,5.8
		s-7.1,5.2-10.3,8.6c-3.2,3.3-5.9,7.1-8.1,11.3c-2.2,4.2-3.3,8.9-3.3,14c0,7.2,1.5,13.1,4.4,17.6c2.9,4.5,7.8,6.7,14.6,6.7
		c4.4,0,7.8-1.5,10.2-4.4c2.4-2.9,3.7-5.9,3.7-9.3c0-4.6-1.4-8.2-4.2-10.6c-2.8-2.4-6.7-3.6-11.5-3.6H4.5c0.5-4.1,1.3-7.4,2.5-10
		C8.2,472.7,10,470.1,12.1,467.8z"/>
</g>
<path id="XMLID_48_" class="st7" d="M21.6,523.5c-0.6-0.6-1.5-0.6-2,0L2.7,540.3l-7.3-7.3c-0.6-0.6-1.5-0.6-2,0
	c-0.6,0.6-0.6,1.5,0,2l8.3,8.3c0.3,0.3,0.6,0.4,1,0.4s0.7-0.1,1-0.4l17.8-17.8C22.1,525,22.1,524.1,21.6,523.5z"/>
<path id="XMLID_51_" class="st8" d="M8.1,563l10.5-10.5c0.6-0.6,0.6-1.5,0-2.1c-0.6-0.6-1.5-0.6-2.1,0L6,560.9l-10.5-10.5
	c-0.6-0.6-1.5-0.6-2.1,0s-0.6,1.5,0,2.1L3.9,563l-10.5,10.5c-0.6,0.6-0.6,1.5,0,2.1c0.3,0.3,0.7,0.4,1,0.4c0.3,0,0.7-0.1,1-0.4
	L6,565l10.5,10.5c0.3,0.3,0.7,0.4,1,0.4s0.7-0.1,1-0.4c0.6-0.6,0.6-1.5,0-2.1L8.1,563z"/>
<g id="W6EeEF_1_">
	<g id="XMLID_56_">
		<path id="XMLID_54_" class="st9" d="M4,582.1c1.7-0.5,3,0.3,3.6,1.1c0.7-0.2,1.3-0.5,2-0.7c0,0.8-0.5,1.4-0.9,1.7
			c0.7,0.2,1.3-0.5,1.3-0.5c-0.2,0.9-1,1.7-1.6,1.9c-0.2,6.4-3.2,10.6-10.1,10.5c-0.5,0,0.1,0-0.4,0c-0.4,0-4.2-0.4-4.9-1.8
			c2.3,0.2,3.9-0.4,4.7-1.1c-1-0.3-2.7-0.5-3-2.8c0.4,0.1,0.6,0.2,1.2,0.1c-1.2-0.8-2.5-1.5-2.5-3.6c0.3,0.3,1.1,0.5,1.3,0.4
			c-0.7-0.2-2-3.2-0.9-4.7c1.8,1.8,3.7,3.4,7.2,3.6C1.3,584.2,2.2,582.7,4,582.1z"/>
	</g>
</g>
<path id="XMLID_58_" class="st10" d="M-0.5,605.4c0.8,0,1.7,0,2.5,0c0-1.2,0-2.3,0-3.5c-1,0-2,0-3,0c-3.3,0.2-4.4,2.5-4,6.3h-2v3.6
	h2c0,3.2,0,6.4,0,9.7c1.3,0,2.7,0,4,0c0-3.2,0-6.4,0-9.7h3v-3.6h-3C-1,607.2-1,605.8-0.5,605.4z"/>
<path id="XMLID_61_" class="st9" d="M-5.2,642.1c-1,0.5-1.8,0-1.8-1.1v-11.7c0-1.1,0.8-1.6,1.8-1.1l12.4,6.1c1,0.5,1,1.3,0,1.8
	L-5.2,642.1z"/>
<path id="XMLID_65_" class="st9" d="M-7,645h27v31.1l-13.5-5l-13.5,5V645z M13.9,663.5c-0.3,0-0.5,0-0.8,0s-0.5-0.1-0.7-0.1
	c-0.2-0.1-0.4-0.3-0.5-0.5c-0.1-0.2-0.2-0.5-0.2-0.9s0-1.3,0.1-2.6c0-1.3,0.1-2.4,0.1-3.4c0-0.9-0.2-1.6-0.5-2.2s-0.7-1-1.2-1.3
	S9,652,8.4,651.9c-0.7-0.1-1.4-0.1-2.2-0.1c-0.6,0-1.2,0.1-1.9,0.2s-1.3,0.3-1.8,0.6c-0.5,0.2-1,0.5-1.4,0.9
	c-0.4,0.4-0.6,0.8-0.6,1.3s0.2,1,0.5,1.3c0.4,0.3,0.9,0.5,1.6,0.5c0.5,0,0.9,0,1.1-0.1c0.2-0.1,0.5-0.2,0.6-0.4
	c0.1-0.1,0.3-0.3,0.3-0.5c0.1-0.2,0.1-0.4,0.1-0.5c0-0.3-0.1-0.6-0.2-1c-0.1-0.3-0.2-0.6-0.2-0.8c0.2-0.1,0.3-0.2,0.6-0.3
	c0.2-0.1,0.6-0.2,0.9-0.2c0.4,0,0.7,0.1,1,0.3c0.3,0.2,0.4,0.4,0.6,0.7c0.1,0.2,0.2,0.5,0.2,0.9c0,0.3,0,0.6,0,0.8v1.2
	c-0.5,0.2-1.3,0.5-2.3,0.8c-1.1,0.3-2,0.6-2.7,0.9c-0.4,0.1-0.8,0.3-1.1,0.5s-0.6,0.4-0.9,0.7c-0.3,0.3-0.5,0.6-0.6,1
	c-0.2,0.4-0.2,0.8-0.2,1.4c0,0.9,0.3,1.7,1,2.3c0.7,0.6,1.5,0.9,2.5,0.9c0.7,0,1.2,0,1.5-0.1c0.4-0.1,0.7-0.2,1.1-0.4
	c0.3-0.1,0.6-0.3,0.8-0.5c0.3-0.2,0.5-0.4,0.8-0.7h0.1c0.2,0.6,0.5,1,1,1.3s1.2,0.5,2.3,0.5c0.6,0,1.1-0.1,1.6-0.2s0.9-0.3,1.3-0.4
	L13.9,663.5L13.9,663.5z M7.7,662.2c-0.2,0.3-0.5,0.5-0.8,0.7s-0.7,0.3-1.1,0.3c-0.4,0-0.8-0.1-1.1-0.4c-0.3-0.3-0.4-0.8-0.4-1.4
	c0-0.5,0.1-0.9,0.3-1.3s0.4-0.7,0.7-0.9c0.3-0.2,0.7-0.4,1.1-0.6c0.5-0.2,0.9-0.4,1.4-0.5L7.7,662.2z"/>
<g id="XMLID_71_">
	<path id="XMLID_74_" class="st10" d="M6,679.2l-13,1.5v24.5L6,713l0,0l13-7.9v-24.4L6,679.2z M17,703.9l-11,6.6v-7.4l-6.4-2.9l0,0
		l6.4-2.8l0,0l0,0l0,0l6.4,2.8l0,0l0,0V699L6,696.2l0,0l0,0l0,0l0,0l0,0l-6.4,2.8v-1.2l0,0l5.8-2.6L4,694.6l-4.5,2v-1.2l3.1-1.4
		l-1.4-0.6l-1.7,0.7v-1.2l0.3-0.1l-3.7-1.7l9.8-4.2v-5.6l11,1.3L17,703.9L17,703.9z"/>
	<polygon id="XMLID_73_" class="st10" points="12.4,696.6 8,694.6 6.6,695.2 12.4,697.8 	"/>
	<polygon id="XMLID_72_" class="st10" points="12.4,694.1 10.7,693.4 9.3,694 12.4,695.3 	"/>
</g>
</svg>
