<?xml version="1.0" encoding="utf-8"?>
<!-- Generator: Adobe Illustrator 19.0.0, SVG Export Plug-In . SVG Version: 6.00 Build 0)  -->
<svg version="1.1" id="Слой_1" xmlns="http://www.w3.org/2000/svg" xmlns:xlink="http://www.w3.org/1999/xlink" x="0px" y="0px"
	 viewBox="0 0 170 870" style="enable-background:new 0 0 170 870;" xml:space="preserve">
<style type="text/css">
	.st0{fill:#FFFFFF;}
	.st1{fill:#A1C057;}
	.st2{fill:#D66143;}
	.st3{fill:#84BC5D;}
	.st4{fill:#45A4D2;}
	.st5{fill:#EFBA44;}
	.st6{fill:#EFEFEF;}
	.st7{fill:#52AC62;}
	.st8{fill:#D76644;}
	.st9{fill:#C7505F;}
	.st10{fill:#BE5460;}
</style>
<path id="XMLID_2_" class="st0" d="M76.8,56.8C77,72.9,91.8,78.3,92,78.4c-0.1,0.4-2.4,7.7-7.8,15.2c-4.7,6.5-9.6,13-17.3,13.1
	c-7.6,0.1-10-4.2-18.6-4.2s-11.4,4.1-18.5,4.4c-7.4,0.3-13.1-7-17.8-13.5C2.2,80-5.2,55.8,4.7,39.5c4.9-8.1,13.8-13.3,23.4-13.4
	c7.3-0.1,14.2,4.6,18.6,4.6c4.5,0,12.8-5.7,21.6-4.9c3.7,0.1,14,1.4,20.7,10.6C88.5,36.7,76.7,43.2,76.8,56.8 M62.6,17.1
	c3.9-4.5,6.6-10.8,5.9-17.1c-5.7,0.2-12.6,3.6-16.6,8.1c-3.7,4-6.9,10.4-6,16.5C52.2,25.1,58.7,21.6,62.6,17.1"/>
<g id="XMLID_18_">
	<path id="XMLID_23_" class="st1" d="M68.2,148.8H15.9c0,0.2,0,0.4,0,0.7v37.4c0,3.8,2.9,7,6.6,7.2V209c0,3.2,2.6,5.8,5.8,5.8
		c3.2,0,5.8-2.6,5.8-5.8v-14.8H50V209c0,3.2,2.6,5.8,5.8,5.8c3.2,0,5.8-2.6,5.8-5.8v-14.8c3.7-0.3,6.6-3.4,6.6-7.2v-37.4
		C68.2,149.3,68.2,149,68.2,148.8z"/>
	<path id="c-4-9-2-9-2-9" class="st1" d="M5.8,152.1L5.8,152.1c3.2,0,5.8,2.6,5.8,5.8v24.7c0,3.2-2.6,5.8-5.8,5.8l0,0
		c-3.2,0-5.8-2.6-5.8-5.8v-24.7C0,154.7,2.6,152.1,5.8,152.1z"/>
	<path id="c-4-1-7-3-8-4" class="st1" d="M78.2,152.1L78.2,152.1c3.2,0,5.8,2.6,5.8,5.8v24.7c0,3.2-2.6,5.8-5.8,5.8l0,0
		c-3.2,0-5.8-2.6-5.8-5.8v-24.7C72.5,154.7,75.1,152.1,78.2,152.1z"/>
	<path id="XMLID_19_" class="st1" d="M16,144.7H68c-0.1-5.6-2.5-10.6-6.4-14.5l4.9-8.5c0.2-0.3,0.1-0.7-0.2-0.8
		c-0.3-0.2-0.7-0.1-0.8,0.2l-4.7,8.2c-4.1-3.7-9.6-6.2-15.8-6.8h-5.8c-6.2,0.6-11.7,3.1-15.8,6.8l-4.7-8.2c-0.2-0.3-0.5-0.4-0.8-0.2
		c-0.3,0.2-0.4,0.5-0.2,0.8l4.9,8.5C18.5,134.1,16.1,139.2,16,144.7z M50.5,134.4c0-1.6,1.3-2.9,3-2.9c1.6,0,3,1.3,3,2.9
		c0,0,0,0,0,0c0,1.6-1.3,2.9-3,2.9C51.9,137.4,50.6,136.1,50.5,134.4C50.5,134.4,50.5,134.4,50.5,134.4z M28.3,134.4
		c0-1.6,1.3-2.9,3-2.9c1.6,0,3,1.3,3,2.9c0,0,0,0,0,0c0,1.6-1.3,2.9-3,2.9C29.6,137.4,28.3,136.1,28.3,134.4
		C28.3,134.4,28.3,134.4,28.3,134.4z"/>
</g>
<g id="XMLID_41_">
	<path id="path5058" class="st2" d="M41.8,268.8H0v-40h41.8V268.8z"/>
	<path id="path5060" class="st3" d="M88,268.8H46.2v-40H88C88,228.9,88,268.8,88,268.8z"/>
	<path id="path5062" class="st4" d="M41.8,313H0v-40h41.8V313z"/>
	<path id="path5064" class="st5" d="M88,313H46.2v-40H88C88,273,88,313,88,313z"/>
</g>
<g id="XMLID_46_">
	<path id="XMLID_44_" class="st6" d="M156.3,464.5c-6-5.2-14.3-7.8-24.9-7.8h-12.3c1-8.8,2.8-16,5.2-21.5
		c2.5-5.5,6.2-10.9,11.1-16.2c5.1-5.4,10.1-9.8,15.1-13.1c4.9-3.3,11.4-7.3,19.4-11.8l-9.2-15.3c-5.3,3.2-11.8,7.4-19.7,12.5
		c-7.8,5.1-15.2,11.3-22.2,18.6c-6.8,7.1-12.6,15.2-17.4,24.3c-4.8,9.1-7.1,19.1-7.1,30.2c0,15.6,3.1,28.2,9.4,37.8
		c6.3,9.6,16.8,14.4,31.4,14.4c9.4,0,16.7-3.1,22.1-9.3c5.4-6.2,8-12.9,8-20C165.4,477.3,162.4,469.7,156.3,464.5z"/>
	<path id="XMLID_43_" class="st6" d="M41.1,419.1c5.1-5.4,10.1-9.8,15.1-13.1c4.9-3.3,11.4-7.3,19.4-11.8l-9.2-15.3
		c-5.3,3.2-11.8,7.4-19.7,12.5c-7.8,5.1-15.2,11.3-22.2,18.6c-6.8,7.1-12.6,15.2-17.4,24.3C2.4,443.4,0,453.4,0,464.5
		c0,15.6,3.1,28.2,9.4,37.8c6.3,9.6,16.8,14.4,31.4,14.4c9.4,0,16.7-3.1,22.1-9.3s8-12.9,8-20c0-10-3-17.7-9.1-22.8
		c-6-5.2-14.3-7.8-24.9-7.8H24.8c1-8.8,2.8-16,5.4-21.6C32.7,429.5,36.3,424.1,41.1,419.1z"/>
</g>
<path id="XMLID_48_" class="st7" d="M57.2,325.7c-1.1-1.1-2.9-1.1-4.1,0l-33.7,33.7L4.9,344.8c-1.1-1.1-2.9-1.1-4.1,0
	c-1.1,1.1-1.1,2.9,0,4.1l16.6,16.6c0.6,0.6,1.3,0.8,2,0.8c0.7,0,1.5-0.3,2-0.8l35.7-35.7C58.3,328.6,58.3,326.8,57.2,325.7z"/>
<path id="XMLID_51_" class="st8" d="M30.1,555.2l21-21c1.1-1.1,1.1-3,0-4.1c-1.1-1.1-3-1.1-4.1,0l-21,21L5,530c-1.1-1.1-3-1.1-4.1,0
	c-1.1,1.1-1.1,3,0,4.1l21,21l-21,21c-1.1,1.1-1.1,3,0,4.1c0.6,0.6,1.3,0.9,2.1,0.9s1.5-0.3,2.1-0.9l21-21l21,21
	c0.6,0.6,1.3,0.9,2.1,0.9c0.7,0,1.5-0.3,2.1-0.9c1.1-1.1,1.1-3,0-4.1L30.1,555.2z"/>
<g id="W6EeEF_1_">
	<g id="XMLID_56_">
		<path id="XMLID_54_" class="st9" d="M21.9,595.5c3.4-0.9,6,0.5,7.2,2.2c1.3-0.4,2.7-0.9,4-1.3c0,1.6-1,2.9-1.7,3.4
			c1.4,0.3,2.6-0.9,2.6-0.9c-0.3,1.9-2,3.4-3.1,3.8c-0.5,12.8-6.4,21.3-20.2,21c-1,0,0.1,0-0.9,0c-0.8,0-8.3-0.9-9.8-3.6
			c4.5,0.4,7.8-0.8,9.4-2.2c-1.9-0.6-5.4-0.9-6-5.6c0.7,0.2,1.1,0.4,2.4,0.2c-2.4-1.6-5.1-3-4.9-7.2c0.6,0.6,2.1,1,2.7,0.9
			c-1.4-0.5-3.9-6.4-1.8-9.4c3.6,3.5,7.5,6.8,14.3,7.2C16.5,599.6,18.4,596.7,21.9,595.5z"/>
	</g>
</g>
<path id="XMLID_58_" class="st10" d="M13,644.2c1.7,0,3.3,0,5,0c0-2.3,0-4.6,0-7c-2,0-4,0-6,0c-6.5,0.4-8.8,5-8,12.7H0v7.3h4.1
	c0,6.4,0,12.9,0,19.3c2.7,0,5.3,0,8,0c0-6.4,0-12.9,0-19.3H18v-7.3H12C12,647.7,11.9,644.9,13,644.2z"/>
<path id="XMLID_61_" class="st9" d="M3.6,718.4c-2,1-3.6,0-3.6-2.3v-23.3c0-2.2,1.6-3.2,3.6-2.3l24.9,12.2c2,1,2,2.6,0,3.6
	L3.6,718.4z"/>
<path id="XMLID_65_" class="st9" d="M0,730.2h54v62.2l-27-10l-27,10V730.2z M41.9,767.4c-0.5,0-1.1,0-1.7,0c-0.6,0-1.1-0.1-1.3-0.2
	c-0.5-0.2-0.8-0.5-1-1c-0.2-0.4-0.3-1-0.3-1.8c0-0.8,0-2.5,0.1-5.1c0.1-2.6,0.1-4.8,0.1-6.7c0-1.8-0.3-3.2-0.9-4.3
	c-0.6-1.1-1.4-2-2.5-2.5c-1.1-0.6-2.3-1-3.7-1.2c-1.4-0.2-2.8-0.3-4.5-0.3c-1.2,0-2.4,0.1-3.8,0.4c-1.4,0.3-2.6,0.7-3.6,1.2
	c-1.1,0.5-2,1.1-2.7,1.8c-0.7,0.7-1.1,1.6-1.1,2.5c0,1.1,0.4,2,1.1,2.6c0.7,0.7,1.8,1,3.2,1c1,0,1.7-0.1,2.2-0.3
	c0.5-0.2,0.9-0.4,1.3-0.8c0.3-0.2,0.5-0.6,0.7-1c0.1-0.4,0.2-0.8,0.2-1.1c0-0.6-0.1-1.3-0.4-2c-0.2-0.7-0.4-1.2-0.4-1.5
	c0.3-0.2,0.7-0.4,1.2-0.6c0.5-0.2,1.1-0.3,1.8-0.3c0.8,0,1.5,0.2,2,0.6c0.5,0.4,0.9,0.8,1.1,1.4c0.2,0.5,0.4,1,0.4,1.7
	c0.1,0.7,0.1,1.2,0.1,1.6v2.4c-1,0.5-2.5,1-4.6,1.6c-2.1,0.6-3.9,1.2-5.4,1.7c-0.8,0.3-1.5,0.6-2.2,1c-0.7,0.4-1.2,0.8-1.7,1.3
	c-0.6,0.6-1,1.3-1.3,2c-0.3,0.8-0.5,1.7-0.5,2.8c0,1.9,0.7,3.4,2.1,4.5c1.4,1.1,3,1.7,5,1.7c1.3,0,2.3-0.1,3-0.3
	c0.7-0.2,1.5-0.5,2.3-0.8c0.6-0.3,1.2-0.6,1.7-1c0.5-0.4,1.1-0.9,1.6-1.5h0.1c0.3,1.1,1,2,2,2.6c1,0.6,2.5,0.9,4.5,0.9
	c1.1,0,2.2-0.1,3.2-0.4s1.9-0.6,2.6-0.9L41.9,767.4L41.9,767.4z M29.4,764.7c-0.5,0.6-1,1-1.6,1.4c-0.6,0.4-1.4,0.6-2.3,0.6
	c-0.9,0-1.6-0.3-2.2-0.9c-0.6-0.6-0.9-1.5-0.9-2.8c0-1,0.2-1.8,0.5-2.6c0.4-0.7,0.8-1.3,1.5-1.8c0.6-0.5,1.3-0.9,2.3-1.3
	c0.9-0.4,1.8-0.8,2.8-1.1L29.4,764.7z"/>
<g id="XMLID_71_">
	<path id="XMLID_74_" class="st10" d="M26,802.6l-26,2.9v48.8l26,15.6v0.1l26-15.7v-48.6L26,802.6z M47.9,852L26,865.1v-14.7
		l-12.7-5.7v0l12.7-5.6v0h0v0l12.7,5.6v0l0,0v-2.5L26,836.6l0,0l0,0v0h0v0l-12.7,5.6v-2.5l0,0l11.7-5.1l-2.8-1.2l-8.9,3.9v-2.5
		l6.1-2.7l-2.8-1.2l-3.4,1.5v-2.5l0.6-0.3l-7.4-3.3l19.5-8.5v-11.1l21.9,2.6V852z"/>
	<polygon id="XMLID_73_" class="st10" points="38.7,837.3 29.8,833.4 27,834.6 38.7,839.8 	"/>
	<polygon id="XMLID_72_" class="st10" points="38.7,832.4 35.3,830.9 32.5,832.1 38.7,834.8 	"/>
</g>
</svg>
